<svg xmlns="http://www.w3.org/2000/svg" viewBox="0 0 56.83 77.94"><defs><style>.cls-1{fill:#c33;stroke:#c33;stroke-miterlimit:10;}</style></defs><title>Ресурс 1</title><g id="Слой_2" data-name="Слой 2"><g id="Слой_1-2" data-name="Слой 1"><path class="cls-1" d="M27.13,73.92c-.12,2.35.34,3.23-.14,3.47-2.37,1.22-15-20.2-16.88-23.32C4.33,44.3,1.54,37.91.68,29.73a32.15,32.15,0,0,1-.12-5.41c1-15,15-24.78,29.63-23.75C43.45,1.52,55.93,9.45,56.32,23c.23,8-3,15.75-7.91,21.75A45.77,45.77,0,0,1,36.94,55.37a1.33,1.33,0,0,1-1.1.14,13.91,13.91,0,0,1-9.16-8.36C26.05,45.6,29.1,44.62,30,44a29.93,29.93,0,0,0,5.58-4.57C39,36,41.67,31.61,42,26.73c.49-6.65-6.11-11.42-12.1-12.16a14.44,14.44,0,0,0-12.83,5c-3.78,4.77-1.83,11.72-.28,17a44.82,44.82,0,0,0,4.7,10.74c2.47,4,5.84,7.27,8.77,10.92,2.11,2.63.86,5.09-.46,7.76S27.27,71,27.13,73.92Z"/></g></g></svg>